<svg width="189" height="78" viewBox="0 0 189 78" fill="none" xmlns="http://www.w3.org/2000/svg">
<path d="M23.8501 22.0029C23.8501 17.7013 25.0278 14.1991 27.4213 11.4583C29.8147 8.75548 33.158 7.38506 37.489 7.38506C40.7182 7.38506 43.3017 8.41288 45.2012 10.3924C47.1008 12.4099 48.0886 14.8082 48.0886 17.549C48.0886 18.4246 47.9366 19.1859 47.6327 19.795C47.3287 20.4422 46.8729 20.937 46.265 21.2796C45.6191 21.6603 44.9733 21.9268 44.3274 22.1171C43.6436 22.3455 42.8078 22.4597 41.782 22.4978C40.7182 22.5359 39.8065 22.5359 39.0466 22.5359C38.2488 22.5359 37.223 22.4978 36.0073 22.4597C34.7916 22.4217 33.8038 22.3836 33.12 22.3836C32.5121 22.3836 32.2462 22.612 32.2462 22.9927C32.2462 23.4495 32.778 24.0966 33.9178 24.9341C35.0195 25.7716 36.4252 26.571 38.1348 27.2562C39.8064 27.9414 41.3641 28.284 42.7318 28.284C43.7955 28.284 44.6693 28.1317 45.3532 27.7891C46.037 27.4846 46.5689 27.142 46.9108 26.7994C47.2528 26.4949 47.5187 26.3045 47.6707 26.3045C48.0506 26.3045 48.2785 26.571 48.2785 27.1039C48.2785 27.8653 48.0506 28.7028 47.6327 29.6164C47.1768 30.53 46.5689 31.4055 45.7711 32.243C44.9353 33.0805 43.8335 33.8038 42.4279 34.3367C41.0222 34.9077 39.4645 35.1742 37.7549 35.1742C34.0318 35.1742 30.7645 33.918 27.9911 31.3675C25.2178 28.817 23.8501 25.6954 23.8501 22.0029ZM28.1051 15.0366C28.1051 16.5593 28.447 17.8536 29.1689 18.9195C29.8907 20.0234 30.9924 20.5564 32.4361 20.5564C33.4619 20.5564 34.3737 20.5564 35.1715 20.4802C35.9693 20.4041 36.7671 20.2899 37.603 20.0995C38.4388 19.9473 39.0846 19.6427 39.5405 19.224C39.9964 18.8433 40.2244 18.3104 40.2244 17.7013C40.2244 15.8741 39.3885 14.3894 37.7169 13.2474C36.0453 12.1054 34.2977 11.5344 32.4741 11.5344C31.3344 11.5344 30.3086 11.877 29.4348 12.5241C28.523 13.1713 28.1051 14.0088 28.1051 15.0366Z" fill="black"/>
<path d="M83.0151 29.5783C80.6597 28.5505 78.8361 27.142 77.5444 25.3528C76.2147 23.5637 75.5688 21.47 75.5688 19.0337C75.5688 15.5695 76.8605 12.7526 79.4439 10.6208C82.0274 8.48901 85.4086 7.38506 89.6256 7.38506C90.2335 7.38506 91.1833 7.49926 92.399 7.6896C93.6147 7.87994 94.3746 7.95607 94.7165 7.95607C95.6283 7.95607 96.4641 7.84187 97.1859 7.53733C97.9078 7.27086 98.4776 6.92825 98.8955 6.50951C99.2755 6.12884 99.6554 5.7101 99.9593 5.32942C100.263 4.94875 100.567 4.60615 100.871 4.30161C101.175 4.03514 101.479 3.88287 101.821 3.88287C102.505 3.88287 103.189 4.37774 103.834 5.29136C104.442 6.24304 104.784 7.11859 104.784 7.95607C104.784 8.41288 104.518 8.83162 104.024 9.13616C103.531 9.4407 102.961 9.59297 102.277 9.59297C101.175 9.59297 100.149 9.47876 99.1995 9.17422C98.2117 8.86968 97.3759 8.71742 96.6161 8.67935C98.8196 9.59297 100.567 10.9634 101.783 12.7526C102.999 14.5417 103.644 16.6354 103.644 19.0337C103.644 22.1171 102.657 24.7057 100.681 26.7994C98.7056 28.8931 96.0462 30.1112 92.7409 30.4919C92.323 30.5681 92.1331 30.7965 92.1331 31.1771C92.1331 31.6339 92.513 31.9765 93.2728 32.243C94.0326 32.5476 94.9445 32.814 96.0462 33.0424C97.11 33.3089 98.2117 33.6515 99.3135 34.0322C100.377 34.4509 101.327 35.0981 102.087 36.0117C102.847 36.9253 103.227 38.0293 103.227 39.3616C103.227 41.6456 102.087 43.4348 99.8073 44.691C97.5279 45.9853 94.7165 46.5944 91.3353 46.5944C88.9038 46.5944 86.5483 46.2899 84.2309 45.6046C81.9134 44.9575 79.9378 43.9678 78.3042 42.5973C76.6326 41.2269 75.8348 39.7042 75.8348 37.9531C75.8348 37.5724 76.2147 37.0014 77.0505 36.3162C77.8483 35.631 78.8361 34.9458 80.0138 34.3367C81.9134 33.347 83.433 32.814 84.5348 32.814C84.9907 32.814 85.3706 33.0044 85.7505 33.3089C86.1304 33.6134 86.3204 34.0322 86.3204 34.5651C86.3204 34.8697 86.2064 35.4026 85.9785 36.202C85.7505 37.0395 85.6365 37.9912 85.6365 39.1332C85.6365 40.5417 86.0164 41.6837 86.7763 42.5212C87.5361 43.3967 88.5619 43.8155 89.8916 43.8155C91.2593 43.8155 92.323 43.4729 93.1208 42.7496C93.8807 42.0263 94.2986 40.9604 94.2986 39.5519C94.2986 38.8287 94.1846 38.1435 94.0326 37.5344C93.8807 36.9253 93.6907 36.3924 93.5008 35.9356C93.2728 35.4787 92.9309 35.06 92.437 34.6032C91.9431 34.1464 91.5252 33.8038 91.1453 33.4992C90.7654 33.1947 90.2335 32.8521 89.4737 32.4714C88.7138 32.0908 88.068 31.8243 87.6121 31.5959C87.1182 31.3675 86.3584 31.0629 85.3706 30.6061C84.3828 30.1874 83.585 29.8448 83.0151 29.5783ZM89.6256 9.17422C88.3719 9.17422 87.3841 10.164 86.6243 12.0673C85.8645 13.9707 85.5226 16.5212 85.5226 19.6427C85.5226 22.8023 85.8645 25.3148 86.6243 27.2181C87.3841 29.1215 88.3719 30.0732 89.6256 30.0732C90.8414 30.0732 91.7912 29.1215 92.551 27.2181C93.3108 25.3148 93.6907 22.8023 93.6907 19.6427C93.6907 16.5212 93.3108 13.9707 92.551 12.0673C91.7912 10.164 90.8414 9.17422 89.6256 9.17422Z" fill="black"/>
<path d="M104.582 28.6647C104.582 26.7233 104.962 24.9341 105.798 23.3353C106.595 21.7364 107.697 20.4041 109.103 19.3382C110.508 18.2723 112.028 17.3587 113.662 16.6735C115.257 15.9883 117.043 15.4173 118.943 14.9985C119.854 14.8463 120.31 14.2752 120.31 13.3236C120.31 12.8668 120.234 12.4099 120.158 11.9912C120.082 11.6105 119.93 11.1918 119.702 10.7731C119.474 10.3924 119.132 10.0498 118.677 9.82137C118.221 9.59297 117.651 9.47876 117.005 9.47876C116.093 9.51683 115.257 9.7833 114.422 10.3162C113.586 10.8492 112.826 11.5344 112.218 12.2957C111.572 13.0571 110.964 13.8184 110.432 14.5798C109.863 15.3411 109.331 15.9883 108.799 16.5212C108.267 17.0542 107.811 17.3206 107.393 17.3206C107.089 17.3206 106.785 17.2064 106.557 16.978C106.329 16.7496 106.215 16.4451 106.215 16.1025V14.0088C106.215 13.9326 106.177 13.6662 106.177 13.2855C106.177 12.9048 106.177 12.6003 106.177 12.448C106.177 12.2957 106.215 12.0673 106.253 11.7628C106.291 11.4583 106.367 11.2299 106.519 11.0015C106.633 10.8111 106.785 10.6208 106.975 10.4304C109.103 8.41288 112.636 7.38506 117.575 7.38506C119.664 7.38506 121.564 7.72767 123.236 8.41288C124.907 9.09809 126.275 9.97364 127.301 11.0776C128.288 12.1815 129.086 13.3997 129.618 14.7321C130.15 16.0644 130.416 17.4348 130.416 18.8053V30.1112C130.416 32.243 130.834 33.7276 131.746 34.6032H122.438C121.298 34.6032 120.652 34.0703 120.462 32.9663C120.31 32.0908 119.968 31.6339 119.474 31.6339C119.132 31.6339 118.715 31.8243 118.259 32.205C117.803 32.5856 117.309 32.9663 116.853 33.4231C116.359 33.8799 115.637 34.2606 114.65 34.6413C113.662 35.0219 112.56 35.1742 111.344 35.1742C109.483 35.1742 107.887 34.5651 106.557 33.3089C105.228 32.0527 104.582 30.4919 104.582 28.6647ZM118.943 17.4729C117.613 17.4729 116.397 18.1962 115.295 19.6427C114.194 21.0893 113.662 22.8785 113.662 25.0864C113.662 28.5886 114.839 30.3397 117.271 30.3397C118.259 30.3397 119.019 29.959 119.55 29.1596C120.082 28.3602 120.348 27.2943 120.348 26C120.348 25.2006 120.31 24.1727 120.31 22.9165C120.31 21.6603 120.31 20.6325 120.31 19.8331C120.31 18.9956 120.196 18.3865 120.006 18.0058C119.778 17.6632 119.436 17.4729 118.943 17.4729Z" fill="black"/>
<path d="M130.419 7.95607C131.255 7.95607 132.356 7.5754 133.648 6.73791C134.94 5.90044 136.156 4.98682 137.219 3.99707C138.283 3.00732 139.309 2.0937 140.297 1.25622C141.284 0.41874 141.93 0 142.272 0C142.728 0 142.994 0.304539 142.994 0.913615V7.95607H146.261V9.85944H142.994V27.0659C142.994 27.2181 142.994 27.5227 142.994 27.9414C142.994 28.3602 143.032 28.6647 143.032 28.817C143.032 29.0073 143.07 29.2738 143.146 29.6164C143.184 29.959 143.222 30.2255 143.298 30.4158L143.526 31.101C143.602 31.3675 143.716 31.5959 143.83 31.7481C143.944 31.9004 144.096 32.0908 144.248 32.243C144.4 32.4334 144.59 32.5856 144.818 32.6998C144.856 32.7379 145.198 32.814 145.805 32.9282C145.691 33.6134 145.198 34.1464 144.362 34.5651C143.526 34.9839 142.614 35.1742 141.664 35.1742C140.221 35.1742 139.005 34.9839 137.979 34.5651C136.953 34.1464 136.156 33.6134 135.586 32.9663C134.978 32.3192 134.522 31.4817 134.18 30.4919C133.8 29.5022 133.572 28.5505 133.496 27.6369C133.382 26.7233 133.344 25.6954 133.344 24.5154V12.2957C133.344 11.9151 133.306 11.6105 133.306 11.4202C133.306 11.2299 133.23 11.0015 133.154 10.6969C133.04 10.3924 132.85 10.202 132.622 10.0498C132.356 9.93557 132.015 9.85944 131.597 9.85944H130.419V7.95607Z" fill="black"/>
<path d="M146.061 22.0029C146.061 17.7013 147.238 14.1991 149.632 11.4583C152.025 8.75548 155.369 7.38506 159.7 7.38506C162.929 7.38506 165.512 8.41288 167.412 10.3924C169.311 12.4099 170.299 14.8082 170.299 17.549C170.299 18.4246 170.147 19.1859 169.843 19.795C169.539 20.4422 169.083 20.937 168.476 21.2796C167.83 21.6603 167.184 21.9268 166.538 22.1171C165.854 22.3455 165.018 22.4597 163.993 22.4978C162.929 22.5359 162.017 22.5359 161.257 22.5359C160.459 22.5359 159.434 22.4978 158.218 22.4597C157.002 22.4217 156.014 22.3836 155.331 22.3836C154.723 22.3836 154.457 22.612 154.457 22.9927C154.457 23.4495 154.989 24.0966 156.128 24.9341C157.23 25.7716 158.636 26.571 160.345 27.2562C162.017 27.9414 163.575 28.284 164.942 28.284C166.006 28.284 166.88 28.1317 167.564 27.7891C168.248 27.4846 168.78 27.142 169.121 26.7994C169.463 26.4949 169.729 26.3045 169.881 26.3045C170.261 26.3045 170.489 26.571 170.489 27.1039C170.489 27.8653 170.261 28.7028 169.843 29.6164C169.387 30.53 168.78 31.4055 167.982 32.243C167.146 33.0805 166.044 33.8038 164.638 34.3367C163.233 34.9077 161.675 35.1742 159.966 35.1742C156.242 35.1742 152.975 33.918 150.202 31.3675C147.428 28.817 146.061 25.6954 146.061 22.0029ZM150.316 15.0366C150.316 16.5593 150.658 17.8536 151.379 18.9195C152.101 20.0234 153.203 20.5564 154.647 20.5564C155.673 20.5564 156.584 20.5564 157.382 20.4802C158.18 20.4041 158.978 20.2899 159.814 20.0995C160.649 19.9473 161.295 19.6427 161.751 19.224C162.207 18.8433 162.435 18.3104 162.435 17.7013C162.435 15.8741 161.599 14.3894 159.928 13.2474C158.256 12.1054 156.508 11.5344 154.685 11.5344C153.545 11.5344 152.519 11.877 151.645 12.5241C150.734 13.1713 150.316 14.0088 150.316 15.0366Z" fill="black"/>
<path d="M49.8637 15.5697C49.8637 14.047 50.2056 12.7527 50.9275 11.6487C51.6493 10.5448 52.6371 9.7073 53.8528 9.09823C55.0685 8.48915 56.3602 8.07041 57.7279 7.80394C59.0956 7.53747 60.5393 7.3852 62.0969 7.3852C65.3642 7.3852 68.2136 7.88007 70.645 8.83175C73.0765 9.78344 74.2922 10.8113 74.2922 11.9533C74.2922 13.1714 73.8743 14.3515 73.0765 15.4555C72.2406 16.5975 71.4808 17.1304 70.759 17.1304C69.6192 17.1304 68.4415 16.7498 67.1878 15.9503C65.9341 15.189 64.8323 14.3134 63.9205 13.3998C62.9707 12.4862 61.907 11.6107 60.6913 10.8113C59.4755 10.0499 58.3738 9.63117 57.31 9.63117C56.5122 9.63117 55.7904 9.85957 55.1825 10.3164C54.5746 10.7732 54.2707 11.4203 54.2707 12.2578C54.2707 13.1334 54.7646 13.8186 55.7524 14.2754C56.7402 14.7322 58.1458 15.1509 60.0074 15.4555C61.5651 15.76 62.9328 16.0265 64.0725 16.2929C65.2122 16.5975 66.5039 17.0162 67.8716 17.5492C69.2393 18.1202 70.3411 18.7673 71.1769 19.4525C72.0127 20.1377 72.7345 21.0514 73.3424 22.1553C73.9123 23.2973 74.2162 24.5536 74.2162 25.962C74.2162 27.637 73.7983 29.1216 73.0385 30.3779C72.2786 31.6341 71.2909 32.5858 70.0751 33.2329C68.8594 33.9181 67.6437 34.413 66.428 34.7175C65.2122 35.0221 63.9965 35.1743 62.8188 35.1743C59.9694 35.1743 57.1201 34.8317 54.3087 34.1465C51.4593 33.4613 50.0537 32.6619 50.0537 31.7483C50.0537 30.7966 50.4716 29.3881 51.3454 27.4847C52.1812 25.5814 52.979 24.6297 53.7008 24.6297C54.1567 24.6297 54.8406 24.8962 55.7524 25.4291C56.6262 25.962 57.538 26.5331 58.4878 27.1421C59.3996 27.7893 60.6533 28.3603 62.1729 28.8932C63.6926 29.4262 65.2122 29.6546 66.8079 29.6546C68.1756 29.6546 69.3913 29.312 70.493 28.6268C71.5948 27.9415 72.1647 27.1421 72.1647 26.1524C72.1647 25.391 71.6328 24.9723 70.569 24.9723C70.1891 24.9723 69.2773 25.0865 67.8336 25.2388C66.39 25.391 65.0983 25.4672 64.0345 25.4672C62.7428 25.4672 61.4511 25.391 60.1974 25.1626C58.9057 24.9723 57.6519 24.6297 56.3982 24.1348C55.1065 23.6399 54.0048 23.0309 53.055 22.3076C52.1052 21.5843 51.3454 20.6326 50.7375 19.4525C50.1297 18.3105 49.8637 17.0162 49.8637 15.5697Z" fill="#077034"/>
<path d="M0.569871 43.9678C0.189957 43.8536 0 43.6633 0 43.4349C0 43.2826 0.113974 43.0923 0.417905 42.94C6.07862 40.1992 9.64982 38.7907 11.1315 38.7907C11.4734 38.7907 11.7393 38.9049 11.9293 39.0571C12.0813 39.2094 12.1952 39.3997 12.2332 39.552C12.2332 39.7043 12.2712 39.9708 12.2712 40.2753V72.937C12.2712 75.0688 12.6891 76.5534 13.6009 77.429H4.29303C3.49521 77.429 2.96333 77.2006 2.6594 76.6676C2.35547 76.1347 2.2035 75.3734 2.2035 74.3075V46.4041C2.2035 46.328 2.16551 46.2138 2.16551 46.0615C2.16551 45.9093 2.12752 45.757 2.12752 45.6428C2.08953 45.5667 2.05154 45.4144 2.01354 45.2621C1.93756 45.1098 1.86158 44.9576 1.7856 44.8434C1.70961 44.7292 1.59564 44.615 1.48166 44.5008C1.36769 44.3866 1.25372 44.2724 1.10175 44.1962C0.949785 44.1201 0.759828 44.044 0.569871 43.9678Z" fill="#CAAD19"/>
<path d="M13.996 54.8551C13.996 54.7028 14.1099 54.5125 14.4139 54.3602C14.4899 54.3602 14.7938 54.2079 15.3257 53.9415C15.8575 53.675 16.3134 53.4466 16.7314 53.2182C17.1493 53.0278 17.6811 52.7614 18.365 52.4568C19.0488 52.1523 19.6567 51.8478 20.2266 51.6194C20.7584 51.3909 21.3283 51.1625 21.9362 50.9341C22.544 50.7057 23.0759 50.5535 23.5698 50.4012C24.0257 50.287 24.4436 50.2109 24.7475 50.2109C25.0895 50.2109 25.3554 50.3251 25.5454 50.4773C25.6973 50.6296 25.8113 50.8199 25.8493 50.9722C25.8493 51.1245 25.8873 51.3909 25.8873 51.6955V72.937C25.8873 75.0688 26.3052 76.5534 27.217 77.429H14.4899C15.3637 76.5534 15.8196 75.0688 15.8196 72.937V57.7482C15.8196 57.6721 15.7816 57.5198 15.7816 57.3294C15.7816 57.1772 15.7436 57.0249 15.7436 56.8726C15.7056 56.7584 15.6676 56.6062 15.5916 56.4158C15.5156 56.2636 15.4396 56.1113 15.3637 55.9971C15.2877 55.8829 15.1737 55.7687 15.0217 55.6545C14.8698 55.5403 14.7178 55.4641 14.5658 55.388C14.1859 55.2738 13.996 55.0835 13.996 54.8551ZM20.7584 37.1157C22.4301 37.1157 23.7598 37.6486 24.7855 38.6384C25.7733 39.6662 26.3052 40.9986 26.3052 42.6735C26.3052 44.3485 25.7733 45.7189 24.7855 46.7087C23.7598 47.7365 22.4301 48.2314 20.7584 48.2314C19.0868 48.2314 17.7191 47.7365 16.7314 46.7087C15.7056 45.7189 15.2117 44.3485 15.2117 42.6735C15.2117 40.9986 15.7056 39.6662 16.7314 38.6384C17.7191 37.6486 19.0868 37.1157 20.7584 37.1157Z" fill="#CAAD19"/>
<path d="M27.3894 50.7819C28.2252 50.7819 29.327 50.4012 30.6187 49.5637C31.9104 48.7262 33.1261 47.8126 34.1899 46.8229C35.2536 45.8331 36.2794 44.9195 37.2672 44.082C38.255 43.2445 38.9008 42.8258 39.2427 42.8258C39.6986 42.8258 39.9646 43.1303 39.9646 43.7394V50.7819H43.2318V52.6852H39.9646V69.8917C39.9646 70.0439 39.9646 70.3485 39.9646 70.7672C39.9646 71.186 40.0026 71.4905 40.0026 71.6428C40.0026 71.8331 40.0406 72.0996 40.1165 72.4422C40.1545 72.7848 40.1925 73.0513 40.2685 73.2416L40.4965 73.9268C40.5724 74.1933 40.6864 74.4217 40.8004 74.5739C40.9144 74.7262 41.0663 74.9165 41.2183 75.0688C41.3703 75.2592 41.5602 75.4114 41.7882 75.5256C41.8262 75.5637 42.1681 75.6398 42.7759 75.754C42.662 76.4392 42.1681 76.9722 41.3323 77.3909C40.4965 77.8097 39.5847 78 38.6349 78C37.1912 78 35.9755 77.8097 34.9497 77.3909C33.9239 76.9722 33.1261 76.4392 32.5563 75.7921C31.9484 75.145 31.4925 74.3075 31.1506 73.3177C30.7707 72.328 30.5427 71.3763 30.4667 70.4627C30.3528 69.5491 30.3148 68.5212 30.3148 67.3412V55.1215C30.3148 54.7409 30.2768 54.4363 30.2768 54.246C30.2768 54.0557 30.2008 53.8273 30.1248 53.5227C30.0108 53.2182 29.8209 53.0278 29.5929 52.8756C29.327 52.7614 28.9851 52.6852 28.5672 52.6852H27.3894V50.7819Z" fill="#CAAD19"/>
<path d="M43.0312 64.8287C43.0312 60.5271 44.2089 57.0249 46.6024 54.2841C48.9958 51.5813 52.3391 50.2109 56.6701 50.2109C59.8994 50.2109 62.4828 51.2387 64.3824 53.2182C66.2819 55.2357 67.2697 57.634 67.2697 60.3748C67.2697 61.2504 67.1177 62.0117 66.8138 62.6208C66.5099 63.268 66.054 63.7628 65.4461 64.1054C64.8003 64.4861 64.1544 64.7526 63.5086 64.9429C62.8247 65.1713 61.9889 65.2855 60.9631 65.3236C59.8994 65.3617 58.9876 65.3617 58.2278 65.3617C57.4299 65.3617 56.4042 65.3236 55.1884 65.2855C53.9727 65.2475 52.9849 65.2094 52.3011 65.2094C51.6932 65.2094 51.4273 65.4378 51.4273 65.8185C51.4273 66.2753 51.9592 66.9224 53.0989 67.7599C54.2007 68.5974 55.6063 69.3968 57.316 70.082C58.9876 70.7672 60.5452 71.1098 61.9129 71.1098C62.9767 71.1098 63.8505 70.9576 64.5343 70.6149C65.2182 70.3104 65.7501 69.9678 66.092 69.6252C66.4339 69.3207 66.6998 69.1303 66.8518 69.1303C67.2317 69.1303 67.4597 69.3968 67.4597 69.9297C67.4597 70.6911 67.2317 71.5286 66.8138 72.4422C66.3579 73.3558 65.7501 74.2313 64.9522 75.0688C64.1164 75.9063 63.0147 76.6296 61.609 77.1625C60.2033 77.7335 58.6457 78 56.936 78C53.2129 78 49.9456 76.7438 47.1723 74.1933C44.3989 71.6428 43.0312 68.5212 43.0312 64.8287ZM47.2862 57.8624C47.2862 59.3851 47.6282 60.6794 48.35 61.7453C49.0718 62.8492 50.1736 63.3822 51.6173 63.3822C52.643 63.3822 53.5548 63.3822 54.3526 63.306C55.1505 63.2299 55.9483 63.1157 56.7841 62.9253C57.6199 62.7731 58.2657 62.4685 58.7216 62.0498C59.1775 61.6691 59.4055 61.1362 59.4055 60.5271C59.4055 58.6999 58.5697 57.2153 56.8981 56.0732C55.2264 54.9312 53.4788 54.3602 51.6552 54.3602C50.5155 54.3602 49.4897 54.7028 48.6159 55.3499C47.7041 55.9971 47.2862 56.8346 47.2862 57.8624Z" fill="#CAAD19"/>
<path d="M68.6175 77.429C69.4913 76.5534 69.9472 75.0688 69.9472 72.937V55.2738C69.9472 53.1801 69.4913 51.6955 68.6175 50.7819H77.9254C78.6852 50.7819 79.2551 51.0483 79.559 51.5813C79.863 52.1142 80.0149 52.9136 80.0149 53.9415V54.5886C80.0149 55.1977 80.0909 55.5022 80.2809 55.5022C80.5088 55.5022 80.7368 55.3499 81.0407 54.9693C81.3446 54.5886 81.6486 54.1699 82.0285 53.6369C82.4084 53.104 82.8263 52.6091 83.3582 52.0762C83.8901 51.5813 84.5739 51.1625 85.4857 50.7819C86.3595 50.4012 87.3473 50.2109 88.487 50.2109C89.6268 50.2109 90.6905 50.4393 91.7163 50.858C92.7041 51.2767 93.2359 51.8097 93.2359 52.4949C93.2359 52.6472 92.5521 54.0937 91.1844 56.8346C91.0704 57.063 90.9185 57.3675 90.7285 57.7482C90.5385 58.1289 90.3866 58.3953 90.3106 58.5857C90.1966 58.8141 90.0827 59.0425 89.9307 59.347C89.7787 59.6516 89.6268 59.88 89.5508 60.0322C89.4368 60.1845 89.3228 60.3368 89.2088 60.489C89.0569 60.6413 88.9429 60.7555 88.8669 60.8316C88.753 60.9078 88.639 60.9458 88.563 60.9458C88.1831 60.9458 87.8792 60.7936 87.6132 60.451C87.3093 60.1084 87.0813 59.7277 86.8914 59.2709C86.6634 58.8521 86.2835 58.4715 85.7516 58.1289C85.1818 57.7863 84.4979 57.5959 83.6621 57.5959C81.2307 57.5959 80.0149 59.2709 80.0149 62.5827V72.937C80.0149 75.0688 80.4328 76.5534 81.3446 77.429H68.6175Z" fill="#CAAD19"/>
<path d="M94.5645 71.4905C94.5645 69.5491 94.9444 67.7599 95.7802 66.1611C96.578 64.5622 97.6797 63.2299 99.0854 62.164C100.491 61.0981 102.011 60.1845 103.644 59.4993C105.24 58.8141 107.026 58.2431 108.925 57.8243C109.837 57.6721 110.293 57.101 110.293 56.1494C110.293 55.6926 110.217 55.2357 110.141 54.817C110.065 54.4363 109.913 54.0176 109.685 53.5989C109.457 53.2182 109.115 52.8756 108.659 52.6472C108.203 52.4188 107.633 52.3046 106.988 52.3046C106.076 52.3426 105.24 52.6091 104.404 53.142C103.568 53.675 102.809 54.3602 102.201 55.1215C101.555 55.8829 100.947 56.6442 100.415 57.4056C99.8452 58.1669 99.3134 58.8141 98.7815 59.347C98.2496 59.88 97.7937 60.1464 97.3758 60.1464C97.0719 60.1464 96.7679 60.0322 96.54 59.8038C96.312 59.5754 96.1981 59.2709 96.1981 58.9283V56.8346C96.1981 56.7584 96.1601 56.492 96.1601 56.1113C96.1601 55.7306 96.1601 55.4261 96.1601 55.2738C96.1601 55.1215 96.1981 54.8931 96.2361 54.5886C96.2741 54.2841 96.35 54.0557 96.502 53.8273C96.616 53.6369 96.768 53.4466 96.9579 53.2562C99.0854 51.2387 102.619 50.2109 107.558 50.2109C109.647 50.2109 111.547 50.5535 113.218 51.2387C114.89 51.9239 116.258 52.7994 117.283 53.9034C118.271 55.0073 119.069 56.2255 119.601 57.5579C120.133 58.8902 120.399 60.2606 120.399 61.6311V72.937C120.399 75.0688 120.817 76.5534 121.728 77.429H112.42C111.281 77.429 110.635 76.896 110.445 75.7921C110.293 74.9165 109.951 74.4597 109.457 74.4597C109.115 74.4597 108.697 74.6501 108.241 75.0308C107.785 75.4114 107.292 75.7921 106.836 76.2489C106.342 76.7057 105.62 77.0864 104.632 77.4671C103.644 77.8477 102.543 78 101.327 78C99.4653 78 97.8697 77.3909 96.54 76.1347C95.2103 74.8785 94.5645 73.3177 94.5645 71.4905ZM103.644 67.9122C103.644 71.4144 104.822 73.1655 107.254 73.1655C108.241 73.1655 109.001 72.7848 109.533 71.9854C110.065 71.186 110.331 70.1201 110.331 68.8258C110.331 68.0264 110.293 66.9986 110.293 65.7423C110.293 64.4861 110.293 63.4583 110.293 62.6589C110.293 61.8214 110.179 61.2123 109.989 60.8316C109.761 60.489 109.419 60.2987 108.925 60.2987C107.596 60.2987 106.38 61.022 105.278 62.4685C104.176 63.9151 103.644 65.7043 103.644 67.9122ZM102.505 47.5462C102.505 47.47 102.543 47.3939 102.619 47.3939C102.695 47.3939 102.885 47.3558 103.15 47.3558C103.378 47.3558 103.644 47.3177 103.91 47.2416C104.594 47.0513 105.468 46.6706 106.57 46.0615C107.33 45.6809 108.013 45.186 108.583 44.5769C109.153 43.9678 109.571 43.511 109.875 43.1303C110.179 42.7877 110.445 42.5974 110.749 42.5974C111.167 42.5974 111.509 42.9019 111.775 43.4349C112.04 43.9678 112.192 44.5008 112.192 44.9956C112.192 45.757 111.395 46.5183 109.875 47.3177C108.317 48.1552 106.798 48.5359 105.354 48.5359C104.594 48.5359 103.948 48.4598 103.378 48.2694C102.771 48.1172 102.505 47.8507 102.505 47.5462Z" fill="#CAAD19"/>
<path d="M122.303 77.429C123.176 76.5534 123.632 75.0688 123.632 72.937V55.2738C123.632 53.1801 123.176 51.6955 122.303 50.7819H131.611C132.37 50.7819 132.94 51.0483 133.244 51.5813C133.548 52.1142 133.7 52.9136 133.7 53.9415V54.5886C133.7 55.1977 133.776 55.5022 133.966 55.5022C134.194 55.5022 134.422 55.3499 134.726 54.9693C135.03 54.5886 135.334 54.1699 135.714 53.6369C136.093 53.104 136.511 52.6091 137.043 52.0762C137.575 51.5813 138.259 51.1625 139.171 50.7819C140.045 50.4012 141.032 50.2109 142.172 50.2109C143.312 50.2109 144.376 50.4393 145.401 50.858C146.389 51.2767 146.921 51.8097 146.921 52.4949C146.921 52.6472 146.237 54.0937 144.87 56.8346C144.756 57.063 144.604 57.3675 144.414 57.7482C144.224 58.1289 144.072 58.3953 143.996 58.5857C143.882 58.8141 143.768 59.0425 143.616 59.347C143.464 59.6516 143.312 59.88 143.236 60.0322C143.122 60.1845 143.008 60.3368 142.894 60.489C142.742 60.6413 142.628 60.7555 142.552 60.8316C142.438 60.9078 142.324 60.9458 142.248 60.9458C141.868 60.9458 141.564 60.7936 141.298 60.451C140.994 60.1084 140.766 59.7277 140.576 59.2709C140.349 58.8521 139.969 58.4715 139.437 58.1289C138.867 57.7863 138.183 57.5959 137.347 57.5959C134.916 57.5959 133.7 59.2709 133.7 62.5827V72.937C133.7 75.0688 134.118 76.5534 135.03 77.429H122.303Z" fill="#CAAD19"/>
<path d="M147.3 54.8551C147.3 54.7028 147.414 54.5125 147.718 54.3602C147.794 54.3602 148.098 54.2079 148.629 53.9415C149.161 53.675 149.617 53.4466 150.035 53.2182C150.453 53.0278 150.985 52.7614 151.669 52.4568C152.353 52.1523 152.96 51.8478 153.53 51.6194C154.062 51.3909 154.632 51.1625 155.24 50.9341C155.848 50.7057 156.38 50.5535 156.874 50.4012C157.329 50.287 157.747 50.2109 158.051 50.2109C158.393 50.2109 158.659 50.3251 158.849 50.4773C159.001 50.6296 159.115 50.8199 159.153 50.9722C159.153 51.1245 159.191 51.3909 159.191 51.6955V72.937C159.191 75.0688 159.609 76.5534 160.521 77.429H147.794C148.667 76.5534 149.123 75.0688 149.123 72.937V57.7482C149.123 57.6721 149.085 57.5198 149.085 57.3294C149.085 57.1772 149.047 57.0249 149.047 56.8726C149.009 56.7584 148.971 56.6062 148.895 56.4158C148.819 56.2636 148.743 56.1113 148.667 55.9971C148.591 55.8829 148.478 55.7687 148.326 55.6545C148.174 55.5403 148.022 55.4641 147.87 55.388C147.49 55.2738 147.3 55.0835 147.3 54.8551ZM154.062 37.1157C155.734 37.1157 157.064 37.6486 158.089 38.6384C159.077 39.6662 159.609 40.9986 159.609 42.6735C159.609 44.3485 159.077 45.7189 158.089 46.7087C157.064 47.7365 155.734 48.2314 154.062 48.2314C152.391 48.2314 151.023 47.7365 150.035 46.7087C149.009 45.7189 148.516 44.3485 148.516 42.6735C148.516 40.9986 149.009 39.6662 150.035 38.6384C151.023 37.6486 152.391 37.1157 154.062 37.1157Z" fill="#CAAD19"/>
<path d="M165.518 74.0791C162.859 71.4144 161.567 68.1406 161.643 64.3338C161.681 60.5271 163.087 57.2153 165.822 54.4363C168.595 51.6574 171.901 50.2489 175.738 50.2489C179.423 50.2489 182.576 51.5813 185.16 54.1699C187.781 56.8346 189.073 60.1084 188.997 63.9151C188.921 67.7218 187.553 71.0337 184.856 73.7745C182.044 76.5915 178.739 78 174.94 78C171.217 78 168.102 76.7057 165.518 74.0791ZM173.496 52.2665C172.243 52.4568 171.369 53.7892 170.837 56.2636C170.305 58.7379 170.305 61.6311 170.837 64.9429C171.331 68.2548 172.205 70.9956 173.42 73.2035C174.636 75.4114 175.89 76.4012 177.143 76.1728C178.359 75.9824 179.195 74.6501 179.727 72.2138C180.221 69.7775 180.221 66.8463 179.765 63.4964C179.271 60.2226 178.397 57.4817 177.182 55.2738C175.966 53.0659 174.712 52.0762 173.496 52.2665Z" fill="#CAAD19"/>
<path d="M1.18723 34.6033C2.06103 33.7278 2.51693 32.2432 2.51693 30.1114V12.4481C2.51693 10.3544 2.06103 8.86982 1.18723 7.95621H10.4951C11.255 7.95621 11.8248 8.22268 12.1288 8.75562C12.4327 9.28856 12.5847 10.088 12.5847 11.1158V11.7629C12.5847 12.372 12.6606 12.6766 12.8506 12.6766C13.0785 12.6766 13.3065 12.5243 13.6104 12.1436C13.9143 11.7629 14.2183 11.3442 14.5982 10.8113C14.9781 10.2783 15.396 9.78344 15.9279 9.2505C16.4598 8.75562 17.1436 8.33688 18.0554 7.95621C18.9292 7.57553 19.917 7.3852 21.0567 7.3852C22.1965 7.3852 23.2602 7.6136 24.286 8.03234C25.2738 8.45108 25.8057 8.98402 25.8057 9.66924C25.8057 9.8215 25.1218 11.2681 23.7541 14.0089C23.6401 14.2373 23.4882 14.5419 23.2982 14.9225C23.1083 15.3032 22.9563 15.5697 22.8803 15.76C22.7663 15.9884 22.6524 16.2168 22.5004 16.5214C22.3484 16.8259 22.1965 17.0543 22.1205 17.2066C22.0065 17.3588 21.8925 17.5111 21.7786 17.6634C21.6266 17.8156 21.5126 17.9298 21.4366 18.006C21.3227 18.0821 21.2087 18.1202 21.1327 18.1202C20.7528 18.1202 20.4489 17.9679 20.1829 17.6253C19.879 17.2827 19.6511 16.902 19.4611 16.4452C19.2331 16.0265 18.8532 15.6458 18.3214 15.3032C17.7515 14.9606 17.0676 14.7703 16.2318 14.7703C13.8004 14.7703 12.5847 16.4452 12.5847 19.7571V30.1114C12.5847 32.2432 13.0026 33.7278 13.9143 34.6033H1.18723Z" fill="#E83D44"/>
</svg>
