<?xml version="1.0" encoding="UTF-8"?>
<svg id="icon" aria-hidden="true" xmlns="http://www.w3.org/2000/svg" viewBox="0 0 38.4436 26">
    <path id="rec" fill="#E83D44"
        d="M32.1887,19.2103c0-.394-.3008-.6553-.7637-.6553h-.8535v2.104h.3848v-.7935h.376l.5381.7935h.4658l-.5869-.8535c.2744-.0996.4395-.313.4395-.5952ZM31.3615,19.5316h-.4053v-.6431h.4297c.2676,0,.4238.1201.4238.3218,0,.2012-.168.3213-.4482.3213ZM32.6321,18.555h1.4521v.3335h-1.0674v.5649h.9463v.334h-.9463v.5381h1.0674v.3335h-1.4521v-2.104ZM36.0471,19.8627h.3965c-.0781.5049-.4873.8354-.998.8354-.6406,0-1.0645-.439-1.0645-1.0942s.4238-1.0942,1.0645-1.0942c.5107,0,.9199.3306.998.8359h-.3965c-.0752-.2949-.2832-.4902-.5986-.4902-.4062,0-.6768.3008-.6768.7485s.2705.7485.6768.7485c.3154,0,.5234-.1953.5986-.4897ZM30.0168,19.6039c0,.5522-.4477,1-1,1s-1-.4478-1-1,.4477-1,1-1,1,.4477,1,1ZM36.4436,25.1981h-4v-1h4v1ZM36.4436,21.6981h-1v2.5h1v-2.5ZM36.4436,17.5096h-1v-2.5h1v2.5ZM36.4436,14.0096h-4v1h4v-1Z" />
    <path id="plus" fill="#E83D44"
        d="M38.4436,7.0581h-3.75v3.75h-2.5v-3.75h-3.75v-2.5h3.75V.8081h2.5v3.75h3.75v2.5Z" />
    <path id="a" fill="#E83D44"
        d="M12.8992,9.3973c-1.7055,0-3.0881,1.613-3.0881,3.6027s1.3826,3.6027,3.0881,3.6027,3.0881-1.613,3.0881-3.6027-1.3826-3.6027-3.0881-3.6027ZM0,13.0254C0,5.381,4.6768,0,11.3152,0c2.4138,0,5.1297.9054,6.9903,3.1685h.1003V.8048h7.3927v24.3907h-7.3927v-2.3636h-.1003c-1.9111,2.263-4.5765,3.1681-6.9903,3.1681C4.6768,26,0,20.619,0,13.0254ZM18.255,13.0254c0-4.2246-2.2126-7.1414-5.4311-7.1414s-5.4311,2.9168-5.4311,7.1414c0,4.1738,2.2126,7.0909,5.4311,7.0909s5.4311-2.9171,5.4311-7.0909Z" />
</svg>