<?xml version="1.0" standalone="no"?>
<!DOCTYPE svg PUBLIC "-//W3C//DTD SVG 20010904//EN"
 "http://www.w3.org/TR/2001/REC-SVG-20010904/DTD/svg10.dtd">
<svg version="1.0" xmlns="http://www.w3.org/2000/svg"
 width="1216.000000pt" height="1216.000000pt" viewBox="0 0 1216.000000 1216.000000"
 preserveAspectRatio="xMidYMid meet">
<metadata>
Created by potrace 1.14, written by Peter Selinger 2001-2017
</metadata>
<g transform="translate(0.000000,1216.000000) scale(0.100000,-0.100000)"
fill="#000000" stroke="none">
<path d="M3348 10185 c-1 -2 -39 -6 -83 -10 -117 -9 -175 -16 -250 -30 -11 -1
-44 -6 -73 -10 -29 -4 -55 -11 -58 -16 -3 -5 -9 -7 -14 -4 -11 7 -239 -47
-338 -80 -7 -3 -14 -5 -17 -5 -20 -4 -232 -83 -241 -91 -7 -5 -16 -9 -20 -8
-5 1 -30 -8 -56 -20 -26 -12 -50 -22 -53 -22 -11 0 -247 -126 -329 -175 -49
-30 -93 -54 -98 -54 -4 0 -8 -4 -8 -8 0 -4 -15 -16 -32 -26 -40 -23 -186 -130
-230 -168 -10 -9 -37 -31 -60 -50 -118 -95 -286 -264 -403 -403 -32 -38 -67
-79 -77 -89 -10 -11 -18 -23 -18 -27 0 -4 -7 -14 -15 -23 -23 -23 -81 -101
-95 -127 -7 -13 -16 -26 -19 -29 -10 -7 -91 -131 -91 -138 0 -3 -6 -13 -14
-21 -7 -9 -24 -36 -37 -61 -13 -25 -26 -47 -29 -50 -3 -3 -23 -39 -44 -80 -22
-41 -48 -90 -58 -108 -10 -18 -18 -38 -18 -44 0 -6 -6 -19 -13 -27 -7 -9 -35
-68 -61 -131 -26 -63 -51 -124 -56 -135 -24 -53 -38 -95 -33 -95 3 0 1 -6 -4
-12 -9 -12 -64 -166 -65 -185 -1 -5 -9 -32 -19 -60 -10 -29 -15 -53 -12 -53 3
0 1 -6 -4 -12 -8 -10 -36 -110 -48 -168 -1 -3 -7 -32 -14 -65 -8 -33 -15 -67
-16 -75 -2 -8 -4 -16 -5 -17 -2 -2 -3 -11 -4 -20 -1 -10 -5 -31 -9 -48 -4 -16
-9 -43 -12 -60 -3 -16 -7 -41 -10 -55 -2 -13 -7 -42 -10 -65 -4 -22 -8 -51
-10 -65 -3 -14 -7 -50 -11 -80 -3 -30 -7 -68 -9 -85 -7 -52 -15 -150 -19 -213
-2 -33 -6 -64 -9 -68 -6 -12 0 -685 7 -754 3 -30 8 -80 10 -110 7 -74 9 -95
32 -270 2 -20 6 -45 8 -55 10 -52 36 -194 41 -225 7 -39 80 -339 95 -385 77
-244 138 -406 236 -623 13 -28 23 -55 23 -58 0 -4 3 -10 8 -13 4 -3 28 -44 52
-91 25 -47 53 -98 63 -115 10 -16 21 -37 25 -45 9 -20 75 -124 82 -130 3 -3
13 -18 22 -34 26 -46 140 -205 170 -237 15 -16 25 -29 22 -29 -3 0 10 -17 28
-38 19 -21 59 -66 89 -101 122 -142 288 -298 459 -431 53 -41 97 -78 99 -82 2
-4 8 -8 14 -8 5 0 24 -11 42 -25 18 -14 38 -25 44 -25 7 0 12 -4 12 -8 0 -5
19 -19 42 -32 24 -13 45 -26 48 -29 30 -35 463 -245 535 -261 6 -1 16 -6 23
-12 6 -6 12 -7 12 -3 0 4 6 3 13 -3 12 -10 163 -60 206 -68 14 -3 28 -7 33
-10 8 -5 94 -29 140 -38 12 -3 52 -12 88 -19 36 -8 99 -20 140 -27 41 -6 89
-14 105 -17 32 -5 40 -6 175 -19 167 -17 608 -9 715 12 17 3 46 7 65 8 19 2
46 6 60 9 14 4 39 8 55 11 17 2 62 11 100 21 39 9 81 19 94 21 13 3 32 9 43
15 10 5 18 7 18 5 0 -3 18 1 40 9 22 8 40 12 40 8 0 -3 6 -1 13 4 9 8 123 50
157 58 5 2 27 11 113 47 75 31 301 149 308 160 3 5 10 10 15 10 5 0 33 16 62
34 29 19 56 34 61 34 5 0 11 3 13 8 2 4 48 41 103 82 115 85 108 80 177 143
90 82 188 180 235 234 82 96 80 104 81 -310 0 -199 1 -367 1 -372 1 -12 2323
-16 2331 -4 8 12 5 7687 -4 7696 -8 9 -2326 11 -2327 3 0 -3 -1 -170 -1 -372
-1 -342 -2 -368 -18 -368 -10 0 -29 15 -42 33 -56 72 -251 261 -363 350 -111
89 -179 137 -194 137 -5 0 -14 6 -18 13 -4 6 -24 21 -43 31 -19 11 -37 22 -40
25 -17 19 -291 154 -406 199 -197 78 -408 137 -596 168 -16 2 -43 7 -60 10
-18 3 -51 7 -74 9 -22 2 -60 7 -85 10 -45 7 -534 16 -541 10z m932 -1869 c14
-3 39 -7 55 -10 17 -3 46 -8 65 -12 43 -7 147 -39 220 -67 192 -73 407 -218
551 -372 82 -88 119 -130 119 -136 0 -4 13 -22 30 -40 16 -19 30 -40 30 -46 0
-7 5 -13 10 -13 6 0 10 -7 10 -15 0 -8 4 -15 8 -15 16 0 149 -256 201 -387 36
-92 94 -272 105 -327 3 -12 11 -50 20 -86 50 -215 69 -410 70 -705 1 -231 -9
-392 -34 -535 -5 -30 -12 -68 -14 -85 -40 -234 -119 -472 -233 -700 -30 -60
-61 -117 -69 -126 -8 -9 -11 -19 -7 -22 3 -4 1 -7 -5 -7 -6 0 -14 -9 -17 -20
-3 -11 -12 -26 -18 -32 -7 -7 -25 -32 -41 -56 -64 -94 -175 -214 -296 -322
-64 -57 -315 -215 -332 -209 -2 0 -34 -14 -73 -31 -67 -30 -221 -75 -295 -86
-19 -3 -46 -8 -60 -11 -43 -9 -375 -11 -416 -3 -112 24 -231 51 -250 55 -74
17 -339 138 -364 166 -3 3 -21 15 -40 26 -19 12 -44 30 -55 40 -11 10 -36 30
-55 44 -49 37 -177 163 -231 229 -47 57 -151 204 -163 230 -3 8 -15 29 -25 45
-26 40 -93 176 -121 245 -12 30 -27 66 -33 80 -6 14 -11 27 -12 30 0 3 -11 35
-23 71 -23 72 -71 249 -77 289 -2 14 -7 36 -10 50 -3 14 -8 40 -11 59 -2 19
-6 47 -9 63 -11 64 -14 86 -20 153 -13 128 -15 169 -16 335 -1 158 4 287 17
395 3 28 7 61 9 75 5 44 17 124 22 145 2 11 6 32 8 47 2 14 13 66 25 115 12
48 23 95 25 103 9 42 78 246 86 255 5 5 9 15 9 23 0 19 130 286 141 290 5 2 9
8 9 13 0 16 87 144 155 230 152 187 323 328 521 428 98 49 242 103 255 95 5
-3 9 -1 9 4 0 4 30 15 68 22 89 18 89 18 147 25 27 3 51 8 53 10 5 5 343 -3
372 -9z"/>
<path d="M3988 7215 c-2 -2 -19 -6 -38 -9 -77 -12 -165 -38 -200 -57 -8 -4
-40 -20 -70 -35 -115 -57 -267 -194 -347 -312 -21 -31 -42 -60 -48 -64 -7 -5
-7 -8 0 -8 6 0 6 -3 -1 -8 -17 -12 -124 -249 -124 -277 0 -3 0 -6 -1 -7 0 -2
-2 -10 -4 -18 -1 -8 -7 -33 -13 -55 -26 -97 -36 -357 -19 -465 12 -77 34 -173
55 -235 23 -70 92 -218 104 -223 4 -2 8 -8 8 -14 0 -10 50 -86 85 -127 118
-143 260 -246 418 -306 105 -39 162 -49 287 -49 107 0 190 6 190 14 0 3 9 6
19 7 51 4 216 77 285 125 102 72 183 154 279 279 46 61 145 280 163 361 9 40
12 53 14 53 1 0 3 11 5 25 2 14 6 34 8 45 17 73 24 259 13 365 -9 80 -60 289
-81 330 -8 16 -15 32 -15 35 0 3 -16 38 -36 78 -39 78 -114 189 -151 224 -13
12 -23 27 -23 33 0 5 -3 10 -7 10 -5 0 -28 19 -52 43 -57 54 -141 117 -157
117 -7 0 -14 3 -16 8 -2 6 -93 54 -108 58 -3 0 -12 3 -20 6 -96 37 -167 50
-282 53 -64 2 -118 2 -120 0z"/>
<path d="M10189 9920 c-1 -8 -3 -271 -4 -585 -1 -313 -3 -574 -4 -580 -1 -7
-204 -9 -591 -8 l-591 2 1 -32 c0 -18 -1 -43 -3 -57 -1 -14 0 -42 4 -62 3 -21
4 -38 0 -38 -7 0 -5 -590 3 -597 2 -3 269 -6 593 -6 l588 -2 0 -590 0 -590
393 -1 c276 -1 392 2 393 10 1 6 2 272 3 591 l1 580 580 2 c319 1 586 2 593 3
9 0 12 86 12 394 l0 395 -557 0 c-307 0 -574 0 -593 1 l-35 0 0 590 c0 386 -3
590 -10 591 -5 1 -182 2 -392 3 -335 1 -383 -1 -384 -14z"/>
<path d="M10277 5760 c-9 -4 -13 -45 -13 -155 0 -82 3 -152 7 -155 4 -3 217
-5 473 -5 410 0 466 -1 467 -15 0 -8 0 -186 0 -395 l0 -381 157 1 157 0 1 553
2 552 -27 1 c-155 4 -201 3 -201 -4 0 -5 -5 -5 -11 -1 -16 9 -104 9 -119 -1
-7 -5 -11 -4 -7 1 3 5 -19 9 -49 9 -30 0 -54 -4 -54 -8 0 -5 -5 -5 -11 -1 -16
9 -104 9 -119 -1 -7 -5 -11 -4 -7 1 3 5 -19 9 -49 9 -30 0 -54 -4 -54 -8 0 -5
-5 -5 -10 -2 -16 10 -130 11 -130 2 0 -5 -4 -5 -10 -2 -15 9 -91 12 -96 3 -3
-5 -10 -5 -16 -2 -12 8 -263 11 -281 4z"/>
<path d="M11112 4324 c-172 -45 -262 -211 -227 -419 21 -121 135 -237 248
-250 9 -2 20 -4 25 -5 18 -6 119 1 153 10 90 25 176 110 204 203 l14 47 -64 0
c-63 0 -64 0 -74 -33 -24 -72 -111 -126 -193 -121 -44 3 -105 30 -136 61 -37
37 -67 125 -62 183 1 14 3 35 4 47 1 12 5 25 9 29 4 4 7 13 7 20 0 20 44 83
58 84 6 0 12 3 12 8 0 11 51 32 95 38 86 12 167 -33 202 -112 l18 -40 62 -1
c69 -1 69 -2 36 80 -55 139 -227 214 -391 171z"/>
<path d="M9674 4315 c-2 -5 -2 -156 -1 -334 l2 -324 43 1 c23 0 50 1 60 1 15
1 17 13 16 121 0 88 3 124 13 132 7 6 13 6 13 2 0 -5 20 -8 44 -6 43 4 46 2
75 -40 17 -23 40 -54 51 -68 11 -14 20 -30 20 -37 0 -6 3 -13 8 -15 4 -1 19
-22 35 -45 23 -37 33 -43 62 -44 89 -3 126 0 108 8 -7 2 -13 9 -13 14 0 9 -36
65 -50 79 -3 3 -29 41 -59 84 l-53 79 23 18 c13 10 31 21 39 24 19 6 60 66 60
88 0 8 4 18 9 21 13 9 -4 136 -18 136 -5 0 -11 8 -14 19 -6 26 -86 78 -132 86
-64 11 -337 11 -341 0z m354 -126 c28 -23 49 -86 32 -99 -3 -3 -9 -13 -13 -22
-12 -33 -66 -50 -161 -52 l-91 -1 -1 95 c-1 52 1 98 3 102 2 4 48 6 102 5 87
-3 102 -6 129 -28z"/>
<path d="M10337 4320 c-11 -4 -13 -73 -13 -335 l0 -330 225 1 226 1 5 29 c3
16 4 40 2 54 l-4 25 -164 0 c-107 -1 -164 3 -165 10 -1 5 -2 43 -3 83 -2 67
-1 72 18 73 12 1 75 3 141 4 66 1 125 3 130 4 6 0 11 23 10 51 l0 50 -70 0
c-38 0 -106 1 -150 3 l-80 2 -1 75 c0 41 1 80 4 87 3 8 48 12 163 11 88 0 162
2 165 4 8 9 11 77 3 90 -6 9 -64 12 -219 13 -116 0 -216 -2 -223 -5z"/>
<path d="M9085 4292 c-77 -26 -134 -70 -172 -132 -55 -92 -62 -199 -18 -305
23 -55 128 -149 180 -162 88 -20 126 -21 190 -3 93 25 168 93 210 189 43 97
14 247 -61 326 -33 34 -85 71 -96 67 -5 -1 -8 3 -8 10 0 6 -3 8 -6 5 -4 -3
-16 -1 -27 5 -35 18 -137 18 -192 0z"/>
<path d="M11215 3320 c-3 -5 -5 -168 -5 -362 1 -194 1 -368 1 -385 l-1 -33
-472 -2 -473 -3 0 -155 0 -155 630 0 630 0 1 553 2 552 -154 0 c-88 0 -155 -4
-159 -10z"/>
</g>
</svg>
